<svg class="fill-black" width="131" height="131" viewBox="0 0 131 131" fill="none" xmlns="http://www.w3.org/2000/svg">
            <g id="pen_size_4">
            <mask id="mask0_1_1688" style="mask-type:alpha" maskUnits="userSpaceOnUse" x="0" y="0" width="131" height="131">
            <rect id="Bounding box" x="0.534424" y="65.6533" width="92.1407" height="92.1407" transform="rotate(-45 0.534424 65.6533)" fill="#D9D9D9"/>
            </mask>
            <g mask="url(#mask0_1_1688)">
            <path id="pen_size_4_2" d="M65.6877 99.723C63.0635 99.723 60.8012 98.7729 58.9009 96.8726C57.0006 94.9723 56.0505 92.71 56.0505 90.0858V41.2208C56.0505 38.5966 57.0006 36.3343 58.9009 34.434C60.8012 32.5337 63.0635 31.5835 65.6877 31.5835C68.312 31.5835 70.5742 32.5337 72.4745 34.434C74.3748 36.3343 75.325 38.5966 75.325 41.2208V90.0858C75.325 92.71 74.3748 94.9723 72.4745 96.8726C70.5742 98.7729 68.312 99.723 65.6877 99.723Z" fill="#0891b2"/>
            <g id="Vector">
            <path d="M84.7016 91.473C82.7105 91.473 80.9941 90.7599 79.5523 89.3339C78.1104 87.9079 77.3895 86.2103 77.3895 84.241V47.5719C77.3895 45.6026 78.1104 43.905 79.5523 42.479C80.9941 41.053 82.7105 40.34 84.7016 40.34C86.6927 40.34 88.4091 41.053 89.8509 42.479C91.2927 43.905 92.0136 45.6026 92.0136 47.5719V84.241C92.0136 86.2103 91.2927 87.9079 89.8509 89.3339C88.4091 90.7599 86.6927 91.473 84.7016 91.473Z" fill="#0891b2"/>
            <path d="M46.6739 91.473C44.6828 91.473 42.9663 90.7599 41.5245 89.3339C40.0827 87.9079 39.3618 86.2103 39.3618 84.241V47.5719C39.3618 45.6026 40.0827 43.905 41.5245 42.479C42.9663 41.053 44.6828 40.34 46.6739 40.34C48.6649 40.34 50.3814 41.053 51.8232 42.479C53.265 43.905 53.9859 45.6026 53.9859 47.5719V84.241C53.9859 86.2103 53.265 87.9079 51.8232 89.3339C50.3814 90.7599 48.6649 91.473 46.6739 91.473Z" fill="#0891b2"/>
            </g>
            </g>
            </g>
        </svg>